# xmcd
#
# Track frame offsets:
#	150
#	14886
#	29337
#	44955
#	59858
#	74943
#	88855
#	103466
#	118475
#	132076
#	146018
#	159376
#	173067
#	184728
#	200598
#	215862
#
# Disc length: 3063 seconds
#
# Revision: 1
# Processed by: cddbd v1.5.1PL0 Copyright (c) Steve Scherf et al.
# Submitted via: EasyCDDAExtractor 5.1.0
#
DISCID=180bf510
DTITLE=Στέλιος Καζαντζίδης - Στέλιος Καζαντζίδης - 45 στροφές Νο 2
DYEAR=1996
DGENRE=ΛΑΙΚΑ
TTITLE0=γελάτε μα δεν ξέρετε
TTITLE1=καλός θα μέινω στήν ζωή
TTITLE2=μες της αγάπης μας το τζάκι
TTITLE3=η καρδιά της μάνας
TTITLE4=εχεις άνδρα χρυσοχέρη
TTITLE5=η ζωή μου λιγοστεύει
TTITLE6=σβήσε το φώς
TTITLE7=αφήστε με να πώ και εγώ
TTITLE8=ήπια της πίκρας τα ποτήρια
TTITLE9=εχω πικρό παράπονο
TTITLE10=πώς πονάω το χωριό μου
TTITLE11=το λάθος σου ποτέ δεν συγχωρώ
TTITLE12=για τή γυναίκα που αγάπησα
TTITLE13=αν μου φύγεις τώρα
TTITLE14=η τύχη σου αγνοείται
TTITLE15=ασ όψονται οι αίτιοι
EXTD=
EXTT0=
EXTT1=
EXTT2=
EXTT3=
EXTT4=
EXTT5=
EXTT6=
EXTT7=
EXTT8=
EXTT9=
EXTT10=
EXTT11=
EXTT12=
EXTT13=
EXTT14=
EXTT15=
PLAYORDER=
